<svg width="44" height="27" viewBox="0 0 44 27" fill="none" xmlns="http://www.w3.org/2000/svg">
<path d="M10.3821 7.03931H18.6809V7.71003H11.1428V12.7576H18.2315V13.4283H11.1428V18.9701H18.7674V19.6407H10.3821V7.03931ZM19.4245 7.03931H20.3062L24.2135 12.5811L28.2073 7.03922L33.6395 0L24.7149 13.1636L29.3138 19.6407H28.3974L24.2135 13.746L20.0122 19.6407H19.1132L23.7467 13.1635L19.4244 7.03931H19.4245ZM29.6423 7.71003V7.03922H39.0995V7.70994H34.7426V19.6406H33.9818V7.71003H29.6423V7.71003ZM0 7.03922H0.950898L14.0632 26.9898L8.64463 19.6406L0.795266 7.99235L0.760719 19.6408H0V7.03922ZM39.0228 18.7675C38.8674 18.7675 38.7509 18.6452 38.7509 18.4869C38.7509 18.3287 38.8674 18.2062 39.0228 18.2062C39.1801 18.2062 39.2948 18.3286 39.2948 18.4869C39.2948 18.6451 39.1801 18.7675 39.0228 18.7675ZM39.7703 18.0292H40.1774C40.1829 18.2533 40.3439 18.404 40.5807 18.404C40.8453 18.404 40.9952 18.242 40.9952 17.9387V16.0173H41.4097V17.9406C41.4097 18.4869 41.0988 18.8015 40.5844 18.8015C40.1014 18.8015 39.7703 18.4963 39.7703 18.0291V18.0292ZM41.9518 18.0047H42.3625C42.3977 18.2627 42.6456 18.4266 43.0028 18.4266C43.3358 18.4266 43.58 18.2514 43.58 18.0103C43.58 17.8031 43.4246 17.6788 43.0712 17.594L42.727 17.5093C42.244 17.3943 42.024 17.157 42.024 16.7577C42.024 16.2736 42.4125 15.9514 42.9953 15.9514C43.5374 15.9514 43.9334 16.2735 43.9575 16.7313H43.5541C43.5152 16.4807 43.3006 16.3243 42.9897 16.3243C42.6623 16.3243 42.444 16.4845 42.444 16.7293C42.444 16.9233 42.5845 17.0346 42.9324 17.1174L43.2266 17.1909C43.7742 17.3209 44 17.5469 44 17.9557C44 18.4756 43.6041 18.8015 42.9713 18.8015C42.3792 18.8015 41.9813 18.4906 41.9518 18.0046V18.0047Z" fill="black"/>
</svg>
